<svg width="349.91" height="50" xmlns="http://www.w3.org/2000/svg">
 <title>Ativo 9</title>

 <g>
  <title>background</title>
  <rect fill="none" id="canvas_background" height="52" width="351.91" y="-1" x="-1"/>
 </g>
 <g>
  <title>Layer 1</title>
  <path id="svg_1" fill="#26445f" d="m175.93,35.54a0.47,0.47 0 0 1 -0.05,0.1s0.04,0 0.05,-0.1z"/>
  <path id="svg_2" fill="#ffffff" d="m139.28,30.7l0,0c-0.41,2.31 -2.31,6.67 -6.63,6.67a4,4 0 0 1 -3.22,-1.37c-1.55,-1.83 -1.27,-5 -1,-6.74c0.32,-1.57 1.72,-6.67 6.63,-6.67a4,4 0 0 1 3.2,1.34c1.46,1.73 1.34,4.63 1,6.75m10.57,-9a13.21,13.21 0 0 0 -2.06,-3.45c-2.56,-3.06 -6.35,-4.67 -10.95,-4.67l-0.05,0l0.05,0l-27.53,0l1.21,-8.34l-12.5,0.02l-1.19,8.31l-4.1,0l-1.81,9.45l4.28,0l-1.85,11.09c-1.44,8.14 2.19,12.52 9.08,12.52a22.09,22.09 0 0 0 10.45,-2.5l-1.57,-8.77a8.52,8.52 0 0 1 -3.29,0.66c-1.25,0 -2.32,-1.25 -1.94,-3.13l1.54,-9.87l11.88,0a21,21 0 0 0 -2.55,6.49a13.79,13.79 0 0 0 14,16.93c7.12,0 15.37,-3.72 18.72,-11.78a19.57,19.57 0 0 0 1.19,-4.08a15.71,15.71 0 0 0 -1,-8.81"/>
  <path id="svg_3" fill="#ffffff" d="m30.61,17.52l1.25,10.84l-7.28,0l6.03,-10.84zm-4.3,-14.37l-25.92,42.2l15.37,0l3.52,-6.44l13.72,0l0.95,6.44l14.3,0l-7.39,-42.2l-14.55,0z"/>
  <path id="svg_4" fill="#ffffff" d="m83.38,42.13c-0.18,1.19 -0.31,2.27 -0.39,3.22l-12.87,0c0,-0.6 0.09,-1.28 0.17,-2.06s0.16,-1.44 0.24,-2l-0.24,0a12.1,12.1 0 0 1 -3.84,3.34a10.74,10.74 0 0 1 -5.45,1.44a11.24,11.24 0 0 1 -4.44,-0.78a8.14,8.14 0 0 1 -3,-2.06a7.43,7.43 0 0 1 -1.67,-2.94a11.83,11.83 0 0 1 -0.51,-3.46c0,-0.64 0,-1.3 0.09,-2s0.15,-1.36 0.27,-2l3.26,-18.83l13.45,0l-2.92,16.63a6.77,6.77 0 0 0 -0.15,1.1q0,0.57 0,0.93a2.79,2.79 0 0 0 0.62,1.93a2.65,2.65 0 0 0 2.09,0.75a3.11,3.11 0 0 0 2.41,-1.22a7.43,7.43 0 0 0 1.5,-3.55l3,-16.57l13.29,0l-4.41,25.21c-0.16,0.76 -0.32,1.73 -0.5,2.92"/>
  <path id="svg_5" fill="#bed62f" d="m309.79,30.79l0,0c-0.41,2.31 -2.31,6.68 -6.63,6.68a4,4 0 0 1 -3.22,-1.36c-1.54,-1.84 -1.27,-5 -1,-6.74s1.72,-6.68 6.63,-6.68a4,4 0 0 1 3.23,1.31c1.46,1.72 1.35,4.62 1,6.75m8.51,-12.43c-2.56,-3.06 -6.35,-4.68 -10.94,-4.68l-0.06,0l0.06,0l-26.7,0l1.21,-8.35l-12.54,0l-1.19,8.31l-4.38,0l-2.91,9.41l5.7,0l-1.86,11.17c-1.44,8.14 1.33,12.52 8.22,12.52a22,22 0 0 0 10.45,-2.51l-1.56,-8.76a8.61,8.61 0 0 1 -3.26,0.63c-1.25,0 -1.46,-1.25 -1.08,-3.13l1.5,-9.88l11,0a21.56,21.56 0 0 0 -2.55,6.49a13.81,13.81 0 0 0 14,16.94c7.13,0 15.38,-3.73 18.72,-11.79a19.3,19.3 0 0 0 1.19,-4.07a15.8,15.8 0 0 0 -0.95,-8.81a13.35,13.35 0 0 0 -2.07,-3.45"/>
  <path id="svg_6" fill="#bed62f" d="m221.5,24.65a1.36,1.36 0 0 1 -0.05,0.36l-8.23,0a3.18,3.18 0 0 1 0.8,-2.22a4.54,4.54 0 0 1 1.54,-1.15a5.2,5.2 0 0 1 2.07,-0.39a4.36,4.36 0 0 1 2.85,0.84a2.78,2.78 0 0 1 1,2.25l0.02,0.31zm6.98,-8.16a12,12 0 0 0 -4.32,-2.6a16.88,16.88 0 0 0 -5.75,-0.91a19.6,19.6 0 0 0 -7.39,1.35a17.28,17.28 0 0 0 -5.75,3.74a16.6,16.6 0 0 0 -3.68,5.93a18,18 0 0 0 -1.33,6.94a12.79,12.79 0 0 0 1.22,5.78c0.81,1.64 7.08,13.11 27,6.1l2.67,-8.82c-8.72,2.93 -16.76,2.11 -19.05,-0.52a2.2,2.2 0 0 1 -0.5,-1.52a1.46,1.46 0 0 1 0.05,-0.38l19.81,0a15.55,15.55 0 0 0 0.58,-2.66a19.76,19.76 0 0 0 0.19,-2.65a14.47,14.47 0 0 0 -1,-5.4a11.55,11.55 0 0 0 -2.74,-4.09"/>
  <path id="svg_7" fill="#bed62f" d="m257,22.62l2.76,-9c-0.78,-0.38 -7.66,-0.87 -10.07,-0.87a19.82,19.82 0 0 0 -5.22,0.7a15.14,15.14 0 0 0 -4.67,2.1a10.84,10.84 0 0 0 -3.32,3.55a9.79,9.79 0 0 0 -1.25,5a8,8 0 0 0 0.61,3.26a7.2,7.2 0 0 0 1.75,2.45a10.69,10.69 0 0 0 2.74,1.81a22.35,22.35 0 0 0 3.67,1.31a13.77,13.77 0 0 1 2.3,0.88q0.9,0.46 0.9,1.17a1,1 0 0 1 -0.67,1a4.92,4.92 0 0 1 -1.84,0.33c-4.41,0.18 -10,-2.06 -10,-2.06l-2.53,8.75a29.5,29.5 0 0 0 5.18,1.46a28.45,28.45 0 0 0 7,0.93a23.15,23.15 0 0 0 5.11,-0.58a15,15 0 0 0 4.72,-1.92a11.24,11.24 0 0 0 3.5,-3.5a9.63,9.63 0 0 0 1.33,-5.23a8.38,8.38 0 0 0 -0.7,-3.56a7.8,7.8 0 0 0 -2,-2.62a11.49,11.49 0 0 0 -3.06,-1.9a23.94,23.94 0 0 0 -3.94,-1.31a11.83,11.83 0 0 1 -2.13,-0.73a1,1 0 0 1 -0.61,-0.9c-0.12,-1.53 2,-4.43 10.4,-0.52"/>
  <path id="svg_8" fill="#bed62f" d="m199.3,17.51l-19.58,0l-1.93,11l7,0l-0.66,3.73a7.1,7.1 0 0 1 -1.71,0.48a12.44,12.44 0 0 1 -2.08,0.18q-4.45,0 -6.5,-2.31a8.52,8.52 0 0 1 -2,-5.87a14.07,14.07 0 0 1 0.9,-5.18a10.92,10.92 0 0 1 2.38,-3.88c5.92,-5.69 15.37,-4.45 17.5,-2.41l4.38,-10.33c-10.7,-5.35 -25.4,-3.08 -32.68,4.66a25.61,25.61 0 0 0 -5.21,8.31a27.63,27.63 0 0 0 -1.87,10.23a19.85,19.85 0 0 0 1.54,8a16.33,16.33 0 0 0 4.33,5.93a18.85,18.85 0 0 0 6.72,3.64a28.93,28.93 0 0 0 8.74,1.31a31.34,31.34 0 0 0 8.88,-1.23a40.66,40.66 0 0 0 7.47,-3l4.38,-23.26z"/>
  <path id="svg_9" fill="#bed62f" d="m326.87,17.42c0.18,-1.17 0.31,-2.23 0.38,-3.18l12.65,0a6,6 0 0 1 0,0.77c0,0.31 -0.09,0.66 -0.15,1l-0.18,1.09l-0.15,0.88l0.18,0a12.22,12.22 0 0 1 3.3,-3.15a8.22,8.22 0 0 1 4.59,-1.26a8,8 0 0 1 2.47,0.29l-2.47,11.18a6.52,6.52 0 0 0 -1.36,-0.23q-0.76,-0.06 -1.41,-0.06a6.7,6.7 0 0 0 -4.77,1.61a6.93,6.93 0 0 0 -2.11,3.8l-2.65,15l-13.19,0l4.41,-24.89c0.16,-0.75 0.32,-1.71 0.5,-2.89"/>
  <path id="svg_10" fill="#26445f" d="m1.9,63.16l0,1.45a3.14,3.14 0 0 1 2.93,-1.61a3.64,3.64 0 0 1 1.9,0.5a3.22,3.22 0 0 1 1.27,1.5a3.56,3.56 0 0 1 1.34,-1.43a3.64,3.64 0 0 1 1.94,-0.57a3.47,3.47 0 0 1 2.6,1a3.9,3.9 0 0 1 1,2.89l0,5.42l-1.88,0l0,-5.1a2.67,2.67 0 0 0 -0.62,-1.89a2.18,2.18 0 0 0 -1.68,-0.66a2.18,2.18 0 0 0 -1.7,0.66a2.63,2.63 0 0 0 -0.62,1.89l0,5.14l-1.86,0l0,-5.14a2.67,2.67 0 0 0 -0.62,-1.89a2.18,2.18 0 0 0 -1.68,-0.66a2.24,2.24 0 0 0 -1.7,0.66a2.67,2.67 0 0 0 -0.62,1.89l0,5.14l-1.9,0l0,-9.19l1.9,0z"/>
  <path id="svg_11" fill="#26445f" d="m17.93,71.15a4.83,4.83 0 0 1 -1.25,-3.43a4.77,4.77 0 0 1 1.24,-3.4a4.11,4.11 0 0 1 3.08,-1.32a3.71,3.71 0 0 1 1.9,0.49a3.47,3.47 0 0 1 1.28,1.3l0,-1.63l1.92,0l0,9.19l-1.9,0l0,-1.72a3.64,3.64 0 0 1 -1.28,1.37a3.53,3.53 0 0 1 -1.9,0.51a4,4 0 0 1 -3.09,-1.36zm5.44,-1.15a3.07,3.07 0 0 0 0.83,-2.25a3,3 0 0 0 -0.83,-2.25a2.72,2.72 0 0 0 -3.91,0a3,3 0 0 0 -0.83,2.23a3.15,3.15 0 0 0 0.83,2.27a2.66,2.66 0 0 0 3.91,0z"/>
  <path id="svg_12" fill="#26445f" d="m30.78,60.73a1.2,1.2 0 0 1 -1.21,1.27a1.15,1.15 0 0 1 -0.85,-0.35a1.26,1.26 0 0 1 0,-1.74a1.15,1.15 0 0 1 0.85,-0.35a1.2,1.2 0 0 1 1.21,1.22l0,-0.05zm-2.16,11.62l0,-9.19l1.9,0l0,9.19l-1.9,0z"/>
  <path id="svg_13" fill="#26445f" d="m32.6,65.8a2.49,2.49 0 0 1 1,-2a4,4 0 0 1 2.57,-0.8a3.88,3.88 0 0 1 2.54,0.79a2.88,2.88 0 0 1 1,2.16l-1.94,0a1.55,1.55 0 0 0 -0.48,-1.06a1.69,1.69 0 0 0 -1.19,-0.39a1.94,1.94 0 0 0 -1.2,0.34a1.1,1.1 0 0 0 -0.44,0.9a1,1 0 0 0 0.56,0.88a4.21,4.21 0 0 0 1.34,0.47c0.52,0.1 1,0.22 1.58,0.36a2.89,2.89 0 0 1 1.34,0.79a2.15,2.15 0 0 1 0.55,1.55a2.31,2.31 0 0 1 -1,2a4.21,4.21 0 0 1 -2.59,0.75a4,4 0 0 1 -2.56,-0.77a2.88,2.88 0 0 1 -1.09,-2.18l2,0a1.45,1.45 0 0 0 0.5,1.06a1.81,1.81 0 0 0 1.22,0.39a2,2 0 0 0 1.24,-0.35a1.07,1.07 0 0 0 0.45,-0.9a1,1 0 0 0 -0.54,-0.89a4.37,4.37 0 0 0 -1.35,-0.47c-0.52,-0.11 -1,-0.23 -1.58,-0.37a2.89,2.89 0 0 1 -1.34,-0.76a2,2 0 0 1 -0.59,-1.5z"/>
  <path id="svg_14" fill="#26445f" d="m47.53,71.15a4.83,4.83 0 0 1 -1.25,-3.43a4.73,4.73 0 0 1 1.24,-3.4a4.1,4.1 0 0 1 3.09,-1.32a3.72,3.72 0 0 1 1.91,0.49a3.47,3.47 0 0 1 1.28,1.3l0,-1.63l1.91,0l0,13.55l-1.91,0l0,-6.08a3.59,3.59 0 0 1 -1.29,1.37a3.48,3.48 0 0 1 -1.9,0.51a4,4 0 0 1 -3.08,-1.36zm5.47,-1.15a3.07,3.07 0 0 0 0.83,-2.25a3,3 0 0 0 -0.83,-2.25a2.72,2.72 0 0 0 -3.91,0a3,3 0 0 0 -0.83,2.23a3.15,3.15 0 0 0 0.8,2.27a2.66,2.66 0 0 0 3.94,0z"/>
  <path id="svg_15" fill="#26445f" d="m64.63,63.16l1.9,0l0,9.19l-1.9,0l0,-1.45a3.12,3.12 0 0 1 -2.93,1.58a3.41,3.41 0 0 1 -2.56,-1a3.92,3.92 0 0 1 -1,-2.87l0,-5.45l1.86,0l0,5.14a2.67,2.67 0 0 0 0.62,1.89a2.18,2.18 0 0 0 1.68,0.66a2.24,2.24 0 0 0 1.7,-0.66a2.67,2.67 0 0 0 0.62,-1.89l0.01,-5.14z"/>
  <path id="svg_16" fill="#26445f" d="m72.9,72.5a4.32,4.32 0 0 1 -3.25,-1.3a5.37,5.37 0 0 1 0,-6.9a4.41,4.41 0 0 1 3.29,-1.3a4.47,4.47 0 0 1 3.26,1.24a4.39,4.39 0 0 1 1.25,3.25a6.32,6.32 0 0 1 -0.07,0.9l-7,0a2.61,2.61 0 0 0 0.77,1.82a2.49,2.49 0 0 0 1.78,0.68a2.23,2.23 0 0 0 2.18,-1.29l2,0a4.09,4.09 0 0 1 -1.52,2.08a4.44,4.44 0 0 1 -2.69,0.82zm1.81,-7.21a2.54,2.54 0 0 0 -1.78,-0.68a2.45,2.45 0 0 0 -1.76,0.68a2.75,2.75 0 0 0 -0.81,1.81l5.1,0a2.38,2.38 0 0 0 -0.75,-1.81z"/>
  <path id="svg_17" fill="#26445f" d="m90.73,63.16l1.9,0l0,9.19l-1.9,0l0,-1.45a3.12,3.12 0 0 1 -2.93,1.58a3.41,3.41 0 0 1 -2.56,-1a3.88,3.88 0 0 1 -1,-2.87l0,-5.45l1.88,0l0,5.14a2.67,2.67 0 0 0 0.62,1.89a2.18,2.18 0 0 0 1.68,0.66a2.21,2.21 0 0 0 1.69,-0.66a2.63,2.63 0 0 0 0.63,-1.89l-0.01,-5.14z"/>
  <path id="svg_18" fill="#26445f" d="m97,63.16l0,1.45a3.14,3.14 0 0 1 3,-1.61a3.64,3.64 0 0 1 1.9,0.5a3.22,3.22 0 0 1 1.23,1.5a3.56,3.56 0 0 1 1.34,-1.43a3.64,3.64 0 0 1 1.94,-0.52a3.48,3.48 0 0 1 2.6,1a3.9,3.9 0 0 1 1,2.89l0,5.42l-1.9,0l0,-5.15a2.67,2.67 0 0 0 -0.62,-1.89a2.18,2.18 0 0 0 -1.68,-0.66a2.22,2.22 0 0 0 -1.69,0.66a2.67,2.67 0 0 0 -0.61,1.89l0,5.14l-1.88,0l0,-5.14a2.67,2.67 0 0 0 -0.62,-1.89a2.19,2.19 0 0 0 -1.69,-0.66a2.22,2.22 0 0 0 -1.69,0.66a2.67,2.67 0 0 0 -0.63,1.89l0,5.14l-1.9,0l0,-9.19l1.9,0z"/>
  <path id="svg_19" fill="#26445f" d="m117,65.8a2.46,2.46 0 0 1 1,-2a3.94,3.94 0 0 1 2.58,-0.81a3.89,3.89 0 0 1 2.55,0.79a2.88,2.88 0 0 1 1,2.16l-2,0a1.5,1.5 0 0 0 -0.47,-1.06a1.69,1.69 0 0 0 -1.19,-0.39a1.94,1.94 0 0 0 -1.2,0.34a1.1,1.1 0 0 0 -0.44,0.9a1,1 0 0 0 0.55,0.88a4.37,4.37 0 0 0 1.35,0.47c0.52,0.1 1,0.22 1.58,0.36a2.94,2.94 0 0 1 1.34,0.79a2.15,2.15 0 0 1 0.55,1.55a2.33,2.33 0 0 1 -1,2a4.21,4.21 0 0 1 -2.59,0.75a4.07,4.07 0 0 1 -2.57,-0.77a2.91,2.91 0 0 1 -1.04,-2.21l2,0a1.45,1.45 0 0 0 0.5,1.06a1.81,1.81 0 0 0 1.22,0.39a2,2 0 0 0 1.24,-0.35a1.07,1.07 0 0 0 0.45,-0.9a1,1 0 0 0 -0.55,-0.89a4.21,4.21 0 0 0 -1.34,-0.47c-0.53,-0.11 -1,-0.23 -1.58,-0.37a2.84,2.84 0 0 1 -1.34,-0.76a2,2 0 0 1 -0.6,-1.46z"/>
  <path id="svg_20" fill="#26445f" d="m128.51,60.73a1.22,1.22 0 0 1 -0.35,0.87a1.18,1.18 0 0 1 -0.86,0.35a1.19,1.19 0 0 1 -0.86,-0.35a1.26,1.26 0 0 1 0,-1.74a1.19,1.19 0 0 1 0.86,-0.35a1.18,1.18 0 0 1 0.86,0.35a1.22,1.22 0 0 1 0.35,0.87zm-2.17,11.62l0,-9.19l1.9,0l0,9.19l-1.9,0z"/>
  <path id="svg_21" fill="#26445f" d="m130.33,65.8a2.46,2.46 0 0 1 1,-2a3.94,3.94 0 0 1 2.58,-0.81a3.84,3.84 0 0 1 2.54,0.79a2.85,2.85 0 0 1 1,2.16l-1.95,0a1.5,1.5 0 0 0 -0.5,-1.04a1.71,1.71 0 0 0 -1.19,-0.39a1.92,1.92 0 0 0 -1.2,0.34a1.1,1.1 0 0 0 -0.44,0.9a1,1 0 0 0 0.55,0.88a4.4,4.4 0 0 0 1.34,0.47q0.79,0.15 1.59,0.36a2.94,2.94 0 0 1 1.34,0.79a2.15,2.15 0 0 1 0.55,1.55a2.33,2.33 0 0 1 -1,2a4.21,4.21 0 0 1 -2.59,0.75a4.07,4.07 0 0 1 -2.57,-0.77a2.91,2.91 0 0 1 -1.08,-2.18l2,0a1.45,1.45 0 0 0 0.5,1.06a1.79,1.79 0 0 0 1.2,0.34a2,2 0 0 0 1.23,-0.35a1.05,1.05 0 0 0 0.46,-0.9a1,1 0 0 0 -0.55,-0.89a4.21,4.21 0 0 0 -1.34,-0.47c-0.53,-0.11 -1.05,-0.23 -1.58,-0.37a2.84,2.84 0 0 1 -1.34,-0.76a2,2 0 0 1 -0.55,-1.46z"/>
  <path id="svg_22" fill="#26445f" d="m144.09,64.71l-2.23,0l0,5.09a1,1 0 0 0 0.24,0.74a1.21,1.21 0 0 0 0.83,0.22l1.16,0l0,1.59l-1.5,0c-1.76,0 -2.65,-0.85 -2.65,-2.55l0,-5.09l-1.08,0l0,-1.55l1.08,0l0,-2.28l1.92,0l0,2.28l2.23,0l0,1.55z"/>
  <path id="svg_23" fill="#26445f" d="m149.71,72.5a4.33,4.33 0 0 1 -3.25,-1.3a4.79,4.79 0 0 1 -1.25,-3.45a4.71,4.71 0 0 1 1.27,-3.45a4.37,4.37 0 0 1 3.27,-1.3a4.45,4.45 0 0 1 3.25,1.25a4.39,4.39 0 0 1 1.25,3.25a5.14,5.14 0 0 1 -0.07,0.9l-7,0a2.61,2.61 0 0 0 0.77,1.82a2.5,2.5 0 0 0 1.78,0.68a2.23,2.23 0 0 0 2.18,-1.29l2.05,0a4.13,4.13 0 0 1 -1.51,2.08a4.48,4.48 0 0 1 -2.74,0.81zm1.82,-7.21a2.56,2.56 0 0 0 -1.79,-0.68a2.47,2.47 0 0 0 -1.76,0.68a2.7,2.7 0 0 0 -0.8,1.81l5.1,0a2.45,2.45 0 0 0 -0.75,-1.81z"/>
  <path id="svg_24" fill="#26445f" d="m158,63.16l0,1.45a3.13,3.13 0 0 1 3,-1.61a3.67,3.67 0 0 1 1.9,0.5a3.27,3.27 0 0 1 1.23,1.5a3.49,3.49 0 0 1 1.34,-1.43a3.64,3.64 0 0 1 1.94,-0.52a3.5,3.5 0 0 1 2.6,1a3.9,3.9 0 0 1 1,2.89l0,5.42l-1.89,0l0,-5.15a2.67,2.67 0 0 0 -0.62,-1.89a2.48,2.48 0 0 0 -3.37,0a2.67,2.67 0 0 0 -0.61,1.89l0,5.14l-1.89,0l0,-5.14a2.67,2.67 0 0 0 -0.61,-1.89a2.49,2.49 0 0 0 -3.38,0a2.63,2.63 0 0 0 -0.62,1.89l0,5.14l-1.9,0l0,-9.19l1.88,0z"/>
  <path id="svg_25" fill="#26445f" d="m174.06,71.15a4.78,4.78 0 0 1 -1.25,-3.43a4.73,4.73 0 0 1 1.24,-3.4a4.1,4.1 0 0 1 3.09,-1.32a3.74,3.74 0 0 1 1.91,0.49a3.44,3.44 0 0 1 1.27,1.3l0,-1.63l1.92,0l0,9.19l-1.92,0l0,-1.72a3.56,3.56 0 0 1 -1.32,1.37a3.51,3.51 0 0 1 -1.9,0.51a4,4 0 0 1 -3.04,-1.36zm5.44,-1.15a3.07,3.07 0 0 0 0.82,-2.25a3,3 0 0 0 -0.82,-2.25a2.65,2.65 0 0 0 -2,-0.84a2.68,2.68 0 0 0 -2,0.82a3,3 0 0 0 -0.82,2.23a3.14,3.14 0 0 0 0.82,2.28a2.67,2.67 0 0 0 3.92,0l0.08,0.01z"/>
  <path id="svg_26" fill="#26445f" d="m184.09,71.05l1.8,0c0.43,1.64 0.36,2.76 -0.23,3.36a1.85,1.85 0 0 1 -1.42,0.52l0,-0.83a0.83,0.83 0 0 0 0.61,-0.2a1,1 0 0 0 0.19,-0.67l0,-0.35l-0.95,0l0,-1.83z"/>
  <path id="svg_27" fill="#26445f" d="m192.69,65.8a2.49,2.49 0 0 1 1,-2a4,4 0 0 1 2.59,-0.81a3.88,3.88 0 0 1 2.54,0.79a2.89,2.89 0 0 1 1,2.16l-1.95,0a1.51,1.51 0 0 0 -0.48,-1.06a1.69,1.69 0 0 0 -1.19,-0.39a1.94,1.94 0 0 0 -1.2,0.34a1.09,1.09 0 0 0 -0.43,0.9a1,1 0 0 0 0.55,0.88a4.21,4.21 0 0 0 1.34,0.47c0.53,0.1 1.05,0.22 1.58,0.36a2.89,2.89 0 0 1 1.34,0.79a2.15,2.15 0 0 1 0.55,1.55a2.32,2.32 0 0 1 -1,2a4.26,4.26 0 0 1 -2.6,0.75a4,4 0 0 1 -2.56,-0.77a2.88,2.88 0 0 1 -1.09,-2.18l2,0a1.45,1.45 0 0 0 0.5,1.06a1.81,1.81 0 0 0 1.23,0.39a2,2 0 0 0 1.23,-0.35a1.08,1.08 0 0 0 0.46,-0.9a1,1 0 0 0 -0.55,-0.89a4.4,4.4 0 0 0 -1.34,-0.47c-0.53,-0.11 -1.06,-0.23 -1.59,-0.37a2.89,2.89 0 0 1 -1.34,-0.76a2,2 0 0 1 -0.59,-1.49z"/>
  <path id="svg_28" fill="#26445f" d="m206,72.5a4.48,4.48 0 0 1 -3.31,-1.31a4.65,4.65 0 0 1 -1.3,-3.44a4.75,4.75 0 0 1 8,-3.43a5,5 0 0 1 0,6.86a4.69,4.69 0 0 1 -3.39,1.32zm2,-2.44a3.11,3.11 0 0 0 0.84,-2.31a3.16,3.16 0 0 0 -0.81,-2.31a2.64,2.64 0 0 0 -2,-0.83a2.55,2.55 0 0 0 -1.93,0.83a3.19,3.19 0 0 0 -0.79,2.31a3.28,3.28 0 0 0 0.77,2.32a2.51,2.51 0 0 0 1.91,0.83a2.67,2.67 0 0 0 2.01,-0.84z"/>
  <path id="svg_29" fill="#26445f" d="m214.54,63.16l0,1.45a3.14,3.14 0 0 1 2.93,-1.6a3.64,3.64 0 0 1 1.9,0.5a3.22,3.22 0 0 1 1.27,1.49a3.56,3.56 0 0 1 1.36,-1.47a3.64,3.64 0 0 1 1.94,-0.52a3.48,3.48 0 0 1 2.6,1a3.9,3.9 0 0 1 1,2.89l0,5.42l-1.9,0l0,-5.11a2.67,2.67 0 0 0 -0.62,-1.89a2.47,2.47 0 0 0 -3.36,0a2.63,2.63 0 0 0 -0.62,1.89l0,5.14l-1.88,0l0,-5.14a2.67,2.67 0 0 0 -0.62,-1.89a2.18,2.18 0 0 0 -1.68,-0.66a2.23,2.23 0 0 0 -1.7,0.66a2.67,2.67 0 0 0 -0.62,1.89l0,5.14l-1.9,0l0,-9.19l1.9,0z"/>
  <path id="svg_30" fill="#26445f" d="m234,72.5a4.47,4.47 0 0 1 -3.31,-1.31a4.65,4.65 0 0 1 -1.3,-3.44a4.75,4.75 0 0 1 8,-3.43a5,5 0 0 1 0,6.86a4.69,4.69 0 0 1 -3.39,1.32zm2,-2.44a3.1,3.1 0 0 0 0.83,-2.31a3.15,3.15 0 0 0 -0.8,-2.31a2.66,2.66 0 0 0 -2,-0.83a2.55,2.55 0 0 0 -1.93,0.83a3.19,3.19 0 0 0 -0.79,2.31a3.28,3.28 0 0 0 0.77,2.32a2.51,2.51 0 0 0 1.91,0.83a2.67,2.67 0 0 0 1.93,-0.84l0.08,0z"/>
  <path id="svg_31" fill="#26445f" d="m240.17,65.8a2.49,2.49 0 0 1 1,-2a4,4 0 0 1 2.59,-0.81a3.88,3.88 0 0 1 2.54,0.79a2.89,2.89 0 0 1 1,2.16l-1.95,0a1.51,1.51 0 0 0 -0.48,-1.06a1.69,1.69 0 0 0 -1.19,-0.39a1.94,1.94 0 0 0 -1.2,0.34a1.09,1.09 0 0 0 -0.43,0.9a1,1 0 0 0 0.55,0.88a4.21,4.21 0 0 0 1.34,0.47c0.53,0.1 1,0.22 1.58,0.36a2.89,2.89 0 0 1 1.34,0.79a2.15,2.15 0 0 1 0.55,1.55a2.32,2.32 0 0 1 -1,2a4.26,4.26 0 0 1 -2.6,0.75a4,4 0 0 1 -2.56,-0.77a2.88,2.88 0 0 1 -1.09,-2.18l2,0a1.45,1.45 0 0 0 0.5,1.06a1.81,1.81 0 0 0 1.23,0.39a2,2 0 0 0 1.23,-0.35a1.08,1.08 0 0 0 0.46,-0.9a1,1 0 0 0 -0.55,-0.89a4.4,4.4 0 0 0 -1.34,-0.47c-0.53,-0.11 -1.06,-0.23 -1.59,-0.37a2.94,2.94 0 0 1 -1.34,-0.76a2,2 0 0 1 -0.59,-1.49z"/>
  <path id="svg_32" fill="#26445f" d="m260.9,63.16l1.9,0l0,9.19l-1.9,0l0,-1.45a3.11,3.11 0 0 1 -2.9,1.58a3.42,3.42 0 0 1 -2.56,-1a3.92,3.92 0 0 1 -1,-2.87l0,-5.45l1.89,0l0,5.14a2.67,2.67 0 0 0 0.61,1.89a2.49,2.49 0 0 0 3.38,0a2.67,2.67 0 0 0 0.62,-1.89l-0.04,-5.14z"/>
  <path id="svg_33" fill="#26445f" d="m267.2,63.16l0,1.45a3.15,3.15 0 0 1 2.94,-1.6a3.67,3.67 0 0 1 1.9,0.5a3.25,3.25 0 0 1 1.26,1.49a3.63,3.63 0 0 1 1.34,-1.43a3.67,3.67 0 0 1 1.95,-0.52a3.5,3.5 0 0 1 2.6,1a3.94,3.94 0 0 1 1,2.89l0,5.42l-1.9,0l0,-5.15a2.67,2.67 0 0 0 -0.61,-1.89a2.22,2.22 0 0 0 -1.69,-0.66a2.18,2.18 0 0 0 -1.68,0.66a2.67,2.67 0 0 0 -0.62,1.89l0,5.14l-1.88,0l0,-5.14a2.67,2.67 0 0 0 -0.62,-1.89a2.18,2.18 0 0 0 -1.68,-0.66a2.21,2.21 0 0 0 -1.69,0.66a2.63,2.63 0 0 0 -0.63,1.89l0,5.14l-1.9,0l0,-9.19l1.91,0z"/>
  <path id="svg_34" fill="#26445f" d="m283.24,71.15a4.78,4.78 0 0 1 -1.24,-3.43a4.73,4.73 0 0 1 1.24,-3.4a4.1,4.1 0 0 1 3.08,-1.32a3.74,3.74 0 0 1 1.91,0.49a3.44,3.44 0 0 1 1.27,1.3l0,-1.63l1.92,0l0,9.19l-1.92,0l0,-1.72a3.64,3.64 0 0 1 -1.28,1.37a3.53,3.53 0 0 1 -1.9,0.51a4,4 0 0 1 -3.08,-1.36zm5.44,-1.15a3.07,3.07 0 0 0 0.82,-2.25a3,3 0 0 0 -0.82,-2.25a2.73,2.73 0 0 0 -3.92,0a3,3 0 0 0 -0.82,2.23a3.14,3.14 0 0 0 0.82,2.28a2.67,2.67 0 0 0 3.92,0l0,-0.01z"/>
  <path id="svg_35" fill="#26445f" d="m300.82,63.16l0,1.6a2.91,2.91 0 0 1 2.75,-1.76l0,2l-0.49,0a2.32,2.32 0 0 0 -1.69,0.57a2.7,2.7 0 0 0 -0.57,2l0,4.84l-1.9,0l0,-9.25l1.9,0z"/>
  <path id="svg_36" fill="#26445f" d="m309.18,72.5a4.35,4.35 0 0 1 -3.25,-1.3a5.35,5.35 0 0 1 0,-6.9a4.85,4.85 0 0 1 6.53,0a4.36,4.36 0 0 1 1.25,3.25a6.37,6.37 0 0 1 -0.06,0.9l-7,0a2.66,2.66 0 0 0 0.78,1.82a2.46,2.46 0 0 0 1.77,0.68a2.24,2.24 0 0 0 2.19,-1.29l2.05,0a4.15,4.15 0 0 1 -1.52,2.08a4.45,4.45 0 0 1 -2.74,0.76zm1.82,-7.21a2.54,2.54 0 0 0 -1.78,-0.68a2.45,2.45 0 0 0 -1.76,0.68a2.75,2.75 0 0 0 -0.81,1.81l5.1,0a2.38,2.38 0 0 0 -0.75,-1.81z"/>
  <path id="svg_37" fill="#26445f" d="m316.22,71.15a4.78,4.78 0 0 1 -1.22,-3.43a4.73,4.73 0 0 1 1.24,-3.4a4.1,4.1 0 0 1 3.06,-1.32a3.74,3.74 0 0 1 1.91,0.49a3.44,3.44 0 0 1 1.27,1.3l0,-4.79l1.92,0l0,12.35l-1.92,0l0,-1.72a3.64,3.64 0 0 1 -1.28,1.37a3.51,3.51 0 0 1 -1.9,0.51a4,4 0 0 1 -3.08,-1.36zm5.44,-1.15a3.07,3.07 0 0 0 0.82,-2.25a3,3 0 0 0 -0.82,-2.25a2.73,2.73 0 0 0 -3.92,0a3,3 0 0 0 -0.82,2.23a3.14,3.14 0 0 0 0.82,2.28a2.67,2.67 0 0 0 3.92,0l0,-0.01z"/>
  <path id="svg_38" fill="#26445f" d="m330.77,72.5a4.32,4.32 0 0 1 -3.25,-1.3a5.37,5.37 0 0 1 0,-6.9a4.41,4.41 0 0 1 3.29,-1.3a4.47,4.47 0 0 1 3.26,1.24a4.39,4.39 0 0 1 1.25,3.25a6.32,6.32 0 0 1 -0.07,0.9l-7,0a2.61,2.61 0 0 0 0.77,1.82a2.49,2.49 0 0 0 1.78,0.68a2.23,2.23 0 0 0 2.2,-1.28l2,0a4.09,4.09 0 0 1 -1.52,2.08a4.44,4.44 0 0 1 -2.71,0.81zm1.81,-7.21a2.54,2.54 0 0 0 -1.78,-0.68a2.45,2.45 0 0 0 -1.76,0.68a2.75,2.75 0 0 0 -0.81,1.81l5.1,0a2.38,2.38 0 0 0 -0.75,-1.81z"/>
 </g>
</svg>